<svg width="226" height="141" viewBox="0 0 226 141" fill="none" xmlns="http://www.w3.org/2000/svg">
<rect width="35" height="102.506" rx="5" transform="matrix(-0.866025 0.5 -0.746241 -0.665676 111.805 123.236)" fill="#10887B"/>
<rect width="35" height="109.598" rx="5" transform="matrix(0.866025 0.5 -0.742435 0.669919 81.3696 2.36182)" fill="#27AC9E"/>
<rect x="1.40723" width="35" height="139.745" rx="5" fill="#25C8B7"/>
<path d="M75.5398 83.4602C74.2955 83.4602 73.1662 83.2259 72.152 82.7571C71.1378 82.2798 70.3324 81.5938 69.7358 80.6989C69.1392 79.7955 68.8409 78.7045 68.8409 77.4261C68.8409 76.3011 69.0625 75.3892 69.5057 74.6903C69.9489 73.983 70.5412 73.429 71.2827 73.0284C72.0241 72.6278 72.8423 72.3295 73.7372 72.1335C74.6406 71.929 75.5483 71.767 76.4602 71.6477C77.6534 71.4943 78.6207 71.3793 79.3622 71.3026C80.1122 71.2173 80.6577 71.0767 80.9986 70.8807C81.348 70.6847 81.5227 70.3437 81.5227 69.858V69.7557C81.5227 68.4943 81.1776 67.5142 80.4872 66.8153C79.8054 66.1165 78.7699 65.767 77.3807 65.767C75.9403 65.767 74.8111 66.0824 73.9929 66.7131C73.1747 67.3437 72.5994 68.017 72.267 68.733L69.4034 67.7102C69.9148 66.517 70.5966 65.5881 71.4489 64.9233C72.3097 64.25 73.2472 63.7812 74.2614 63.517C75.2841 63.2443 76.2898 63.108 77.2784 63.108C77.9091 63.108 78.6335 63.1847 79.4517 63.3381C80.2784 63.483 81.0753 63.7855 81.8423 64.2457C82.6179 64.706 83.2614 65.4006 83.7727 66.3295C84.2841 67.2585 84.5398 68.5028 84.5398 70.0625V83H81.5227V80.3409H81.3693C81.1648 80.767 80.8239 81.223 80.3466 81.7088C79.8693 82.1946 79.2344 82.608 78.4418 82.9489C77.6491 83.2898 76.6818 83.4602 75.5398 83.4602ZM76 80.75C77.1932 80.75 78.1989 80.5156 79.017 80.0469C79.8438 79.5781 80.4659 78.973 80.8835 78.2315C81.3097 77.4901 81.5227 76.7102 81.5227 75.892V73.1307C81.3949 73.2841 81.1136 73.4247 80.679 73.5526C80.2528 73.6719 79.7585 73.7784 79.196 73.8722C78.642 73.9574 78.1009 74.0341 77.5724 74.1023C77.0526 74.1619 76.6307 74.2131 76.3068 74.2557C75.5227 74.358 74.7898 74.5241 74.108 74.7543C73.4347 74.9759 72.8892 75.3125 72.4716 75.7642C72.0625 76.2074 71.858 76.8125 71.858 77.5795C71.858 78.6278 72.2457 79.4205 73.0213 79.9574C73.8054 80.4858 74.7983 80.75 76 80.75ZM98.5863 63.3636V65.9205H88.4102V63.3636H98.5863ZM91.3761 58.6591H94.3931V77.375C94.3931 78.2273 94.5167 78.8665 94.7638 79.2926C95.0195 79.7102 95.3434 79.9915 95.7354 80.1364C96.136 80.2727 96.5579 80.3409 97.0011 80.3409C97.3335 80.3409 97.6062 80.3239 97.8192 80.2898C98.0323 80.2472 98.2028 80.2131 98.3306 80.1875L98.9442 82.8977C98.7397 82.9744 98.4542 83.0511 98.0877 83.1278C97.7212 83.2131 97.2567 83.2557 96.6942 83.2557C95.842 83.2557 95.0067 83.0724 94.1886 82.706C93.3789 82.3395 92.7056 81.7812 92.1687 81.0312C91.6403 80.2812 91.3761 79.3352 91.3761 78.1932V58.6591ZM108.903 83.4602C107.659 83.4602 106.529 83.2259 105.515 82.7571C104.501 82.2798 103.696 81.5938 103.099 80.6989C102.502 79.7955 102.204 78.7045 102.204 77.4261C102.204 76.3011 102.426 75.3892 102.869 74.6903C103.312 73.983 103.904 73.429 104.646 73.0284C105.387 72.6278 106.206 72.3295 107.1 72.1335C108.004 71.929 108.912 71.767 109.824 71.6477C111.017 71.4943 111.984 71.3793 112.725 71.3026C113.475 71.2173 114.021 71.0767 114.362 70.8807C114.711 70.6847 114.886 70.3437 114.886 69.858V69.7557C114.886 68.4943 114.541 67.5142 113.85 66.8153C113.169 66.1165 112.133 65.767 110.744 65.767C109.304 65.767 108.174 66.0824 107.356 66.7131C106.538 67.3437 105.963 68.017 105.63 68.733L102.767 67.7102C103.278 66.517 103.96 65.5881 104.812 64.9233C105.673 64.25 106.61 63.7812 107.625 63.517C108.647 63.2443 109.653 63.108 110.642 63.108C111.272 63.108 111.997 63.1847 112.815 63.3381C113.642 63.483 114.439 63.7855 115.206 64.2457C115.981 64.706 116.625 65.4006 117.136 66.3295C117.647 67.2585 117.903 68.5028 117.903 70.0625V83H114.886V80.3409H114.733C114.528 80.767 114.187 81.223 113.71 81.7088C113.233 82.1946 112.598 82.608 111.805 82.9489C111.012 83.2898 110.045 83.4602 108.903 83.4602ZM109.363 80.75C110.556 80.75 111.562 80.5156 112.38 80.0469C113.207 79.5781 113.829 78.973 114.247 78.2315C114.673 77.4901 114.886 76.7102 114.886 75.892V73.1307C114.758 73.2841 114.477 73.4247 114.042 73.5526C113.616 73.6719 113.122 73.7784 112.559 73.8722C112.005 73.9574 111.464 74.0341 110.936 74.1023C110.416 74.1619 109.994 74.2131 109.67 74.2557C108.886 74.358 108.153 74.5241 107.471 74.7543C106.798 74.9759 106.252 75.3125 105.835 75.7642C105.426 76.2074 105.221 76.8125 105.221 77.5795C105.221 78.6278 105.609 79.4205 106.385 79.9574C107.169 80.4858 108.162 80.75 109.363 80.75ZM126.427 56.8182V83H123.41V56.8182H126.427ZM139.93 83.4091C138.157 83.4091 136.602 82.9872 135.264 82.1435C133.934 81.2997 132.895 80.1193 132.145 78.6023C131.403 77.0852 131.032 75.3125 131.032 73.2841C131.032 71.2386 131.403 69.4531 132.145 67.9276C132.895 66.402 133.934 65.2173 135.264 64.3736C136.602 63.5298 138.157 63.108 139.93 63.108C141.703 63.108 143.254 63.5298 144.583 64.3736C145.922 65.2173 146.961 66.402 147.703 67.9276C148.453 69.4531 148.828 71.2386 148.828 73.2841C148.828 75.3125 148.453 77.0852 147.703 78.6023C146.961 80.1193 145.922 81.2997 144.583 82.1435C143.254 82.9872 141.703 83.4091 139.93 83.4091ZM139.93 80.6989C141.277 80.6989 142.385 80.3537 143.254 79.6634C144.123 78.973 144.767 78.0653 145.184 76.9403C145.602 75.8153 145.811 74.5966 145.811 73.2841C145.811 71.9716 145.602 70.7486 145.184 69.6151C144.767 68.4815 144.123 67.5653 143.254 66.8665C142.385 66.1676 141.277 65.8182 139.93 65.8182C138.583 65.8182 137.475 66.1676 136.606 66.8665C135.737 67.5653 135.093 68.4815 134.676 69.6151C134.258 70.7486 134.049 71.9716 134.049 73.2841C134.049 74.5966 134.258 75.8153 134.676 76.9403C135.093 78.0653 135.737 78.973 136.606 79.6634C137.475 80.3537 138.583 80.6989 139.93 80.6989ZM161.359 90.7727C159.902 90.7727 158.649 90.5852 157.601 90.2102C156.553 89.8438 155.679 89.358 154.98 88.7528C154.29 88.1563 153.74 87.517 153.331 86.8352L155.734 85.1477C156.007 85.5057 156.352 85.9148 156.77 86.375C157.188 86.8438 157.759 87.2486 158.483 87.5895C159.216 87.9389 160.175 88.1136 161.359 88.1136C162.945 88.1136 164.253 87.7301 165.284 86.9631C166.315 86.196 166.831 84.9943 166.831 83.358V79.3693H166.575C166.354 79.7273 166.038 80.1705 165.629 80.6989C165.229 81.2188 164.649 81.6832 163.891 82.0923C163.141 82.4929 162.126 82.6932 160.848 82.6932C159.263 82.6932 157.839 82.3182 156.578 81.5682C155.325 80.8182 154.332 79.7273 153.599 78.2955C152.875 76.8636 152.513 75.125 152.513 73.0795C152.513 71.0682 152.866 69.3168 153.574 67.8253C154.281 66.3253 155.266 65.1662 156.527 64.348C157.788 63.5213 159.246 63.108 160.899 63.108C162.178 63.108 163.192 63.321 163.942 63.7472C164.7 64.1648 165.28 64.642 165.68 65.179C166.089 65.7074 166.405 66.142 166.626 66.483H166.933V63.3636H169.848V83.5625C169.848 85.25 169.464 86.6222 168.697 87.679C167.939 88.7443 166.916 89.5241 165.629 90.0185C164.351 90.5213 162.928 90.7727 161.359 90.7727ZM161.257 79.983C162.467 79.983 163.49 79.706 164.325 79.152C165.161 78.598 165.795 77.8011 166.23 76.7614C166.665 75.7216 166.882 74.4773 166.882 73.0284C166.882 71.6136 166.669 70.3651 166.243 69.2827C165.817 68.2003 165.186 67.3523 164.351 66.7386C163.516 66.125 162.484 65.8182 161.257 65.8182C159.979 65.8182 158.913 66.142 158.061 66.7898C157.217 67.4375 156.582 68.3068 156.156 69.3977C155.739 70.4886 155.53 71.6989 155.53 73.0284C155.53 74.392 155.743 75.598 156.169 76.6463C156.604 77.6861 157.243 78.5043 158.087 79.1009C158.939 79.6889 159.996 79.983 161.257 79.983ZM175.371 83V63.3636H178.388V83H175.371ZM176.905 60.0909C176.317 60.0909 175.81 59.8906 175.384 59.4901C174.966 59.0895 174.757 58.608 174.757 58.0455C174.757 57.483 174.966 57.0014 175.384 56.6009C175.81 56.2003 176.317 56 176.905 56C177.493 56 177.996 56.2003 178.413 56.6009C178.839 57.0014 179.053 57.483 179.053 58.0455C179.053 58.608 178.839 59.0895 178.413 59.4901C177.996 59.8906 177.493 60.0909 176.905 60.0909ZM183.351 83V80.6989L194.499 66.3807V66.1761H183.709V63.3636H198.385V65.767L187.544 79.983V80.1875H198.743V83H183.351ZM211.061 83.4091C209.169 83.4091 207.537 82.9915 206.164 82.1562C204.801 81.3125 203.748 80.1364 203.007 78.6278C202.274 77.1108 201.907 75.3466 201.907 73.3352C201.907 71.3239 202.274 69.5511 203.007 68.017C203.748 66.4744 204.779 65.2727 206.1 64.4119C207.43 63.5426 208.981 63.108 210.754 63.108C211.777 63.108 212.787 63.2784 213.784 63.6193C214.781 63.9602 215.689 64.5142 216.507 65.2812C217.325 66.0398 217.977 67.0455 218.463 68.2983C218.949 69.5511 219.191 71.0937 219.191 72.9261V74.2045H204.055V71.5966H216.123C216.123 70.4886 215.902 69.5 215.458 68.6307C215.024 67.7614 214.402 67.0753 213.592 66.5724C212.791 66.0696 211.845 65.8182 210.754 65.8182C209.552 65.8182 208.512 66.1165 207.635 66.7131C206.765 67.3011 206.096 68.0682 205.627 69.0142C205.159 69.9602 204.924 70.9744 204.924 72.0568V73.7955C204.924 75.2784 205.18 76.5355 205.691 77.5668C206.211 78.5895 206.931 79.3693 207.852 79.9062C208.772 80.4347 209.842 80.6989 211.061 80.6989C211.853 80.6989 212.569 80.5881 213.208 80.3665C213.856 80.1364 214.414 79.7955 214.883 79.3438C215.352 78.8835 215.714 78.3125 215.97 77.6307L218.885 78.4489C218.578 79.4375 218.062 80.3068 217.338 81.0568C216.613 81.7983 215.718 82.3778 214.653 82.7955C213.588 83.2045 212.39 83.4091 211.061 83.4091Z" fill="#10887B"/>
</svg>
