<svg width="233" height="141" viewBox="0 0 233 141" fill="none" xmlns="http://www.w3.org/2000/svg">
<rect width="35" height="102.506" rx="5" transform="matrix(-0.866025 0.5 -0.746241 -0.665676 111.805 123.236)" fill="#067299"/>
<rect width="35" height="109.598" rx="5" transform="matrix(0.866025 0.5 -0.742435 0.669919 81.3696 2.36182)" fill="#279CAC"/>
<rect x="1.40723" width="35" height="139.745" rx="5" fill="#25C8B7"/>
<path d="M75.2841 83.4347C74.0398 83.4347 72.9148 83.2045 71.9091 82.7443C70.9034 82.2756 70.1065 81.598 69.5185 80.7116C68.9389 79.8253 68.6491 78.7386 68.6491 77.4517C68.6491 76.3437 68.8622 75.4318 69.2884 74.7159C69.7145 74 70.2898 73.4332 71.0142 73.0156C71.7386 72.598 72.5483 72.2827 73.4432 72.0696C74.3381 71.8565 75.25 71.6946 76.179 71.5838C77.3551 71.4474 78.3097 71.3366 79.0426 71.2514C79.7756 71.1577 80.3082 71.0085 80.6406 70.804C80.973 70.5994 81.1392 70.267 81.1392 69.8068V69.7173C81.1392 68.6009 80.8239 67.7358 80.1932 67.1222C79.571 66.5085 78.642 66.2017 77.4062 66.2017C76.1193 66.2017 75.1051 66.4872 74.3636 67.0582C73.6307 67.6207 73.1236 68.2472 72.8423 68.9375L69.25 68.1193C69.6761 66.9261 70.2983 65.9631 71.1165 65.2301C71.9432 64.4886 72.8935 63.9517 73.9673 63.6193C75.0412 63.2784 76.1705 63.108 77.3551 63.108C78.1392 63.108 78.9702 63.2017 79.848 63.3892C80.7344 63.5682 81.5611 63.9006 82.3281 64.3864C83.1037 64.8722 83.7386 65.5668 84.233 66.4702C84.7273 67.3651 84.9744 68.5284 84.9744 69.9602V83H81.2415V80.3153H81.0881C80.8409 80.8097 80.4702 81.2955 79.9759 81.7727C79.4815 82.25 78.8466 82.6463 78.071 82.9616C77.2955 83.277 76.3665 83.4347 75.2841 83.4347ZM76.1151 80.3665C77.1719 80.3665 78.0753 80.1577 78.8253 79.7401C79.5838 79.3224 80.1591 78.777 80.5511 78.1037C80.9517 77.4219 81.152 76.6932 81.152 75.9176V73.3864C81.0156 73.5227 80.7514 73.6506 80.3594 73.7699C79.9759 73.8807 79.5369 73.9787 79.0426 74.0639C78.5483 74.1406 78.0668 74.2131 77.598 74.2812C77.1293 74.3409 76.7372 74.392 76.4219 74.4347C75.6804 74.5284 75.0028 74.6861 74.3892 74.9077C73.7841 75.1293 73.2983 75.4489 72.9318 75.8665C72.5739 76.2756 72.3949 76.821 72.3949 77.5028C72.3949 78.4489 72.7443 79.1648 73.4432 79.6506C74.142 80.1278 75.0327 80.3665 76.1151 80.3665ZM99.2319 63.3636V66.4318H88.506V63.3636H99.2319ZM91.3825 58.6591H95.2049V77.2344C95.2049 77.9759 95.3157 78.5341 95.5373 78.9091C95.7589 79.2756 96.0444 79.527 96.3938 79.6634C96.7518 79.7912 97.1396 79.8551 97.5572 79.8551C97.864 79.8551 98.1325 79.8338 98.3626 79.7912C98.5927 79.7486 98.7717 79.7145 98.8995 79.6889L99.5898 82.8466C99.3683 82.9318 99.0529 83.017 98.6438 83.1023C98.2347 83.196 97.7234 83.2472 97.1097 83.2557C96.104 83.2727 95.1665 83.0938 94.2972 82.7188C93.4279 82.3438 92.7248 81.7642 92.1879 80.9801C91.6509 80.196 91.3825 79.2116 91.3825 78.027V58.6591ZM109.175 83.4347C107.93 83.4347 106.805 83.2045 105.8 82.7443C104.794 82.2756 103.997 81.598 103.409 80.7116C102.83 79.8253 102.54 78.7386 102.54 77.4517C102.54 76.3437 102.753 75.4318 103.179 74.7159C103.605 74 104.18 73.4332 104.905 73.0156C105.629 72.598 106.439 72.2827 107.334 72.0696C108.229 71.8565 109.141 71.6946 110.07 71.5838C111.246 71.4474 112.2 71.3366 112.933 71.2514C113.666 71.1577 114.199 71.0085 114.531 70.804C114.864 70.5994 115.03 70.267 115.03 69.8068V69.7173C115.03 68.6009 114.714 67.7358 114.084 67.1222C113.462 66.5085 112.533 66.2017 111.297 66.2017C110.01 66.2017 108.996 66.4872 108.254 67.0582C107.521 67.6207 107.014 68.2472 106.733 68.9375L103.141 68.1193C103.567 66.9261 104.189 65.9631 105.007 65.2301C105.834 64.4886 106.784 63.9517 107.858 63.6193C108.932 63.2784 110.061 63.108 111.246 63.108C112.03 63.108 112.861 63.2017 113.739 63.3892C114.625 63.5682 115.452 63.9006 116.219 64.3864C116.994 64.8722 117.629 65.5668 118.124 66.4702C118.618 67.3651 118.865 68.5284 118.865 69.9602V83H115.132V80.3153H114.979C114.732 80.8097 114.361 81.2955 113.866 81.7727C113.372 82.25 112.737 82.6463 111.962 82.9616C111.186 83.277 110.257 83.4347 109.175 83.4347ZM110.006 80.3665C111.063 80.3665 111.966 80.1577 112.716 79.7401C113.474 79.3224 114.05 78.777 114.442 78.1037C114.842 77.4219 115.043 76.6932 115.043 75.9176V73.3864C114.906 73.5227 114.642 73.6506 114.25 73.7699C113.866 73.8807 113.428 73.9787 112.933 74.0639C112.439 74.1406 111.957 74.2131 111.489 74.2812C111.02 74.3409 110.628 74.392 110.312 74.4347C109.571 74.5284 108.893 74.6861 108.28 74.9077C107.675 75.1293 107.189 75.4489 106.822 75.8665C106.464 76.2756 106.286 76.821 106.286 77.5028C106.286 78.4489 106.635 79.1648 107.334 79.6506C108.033 80.1278 108.923 80.3665 110.006 80.3665ZM127.779 56.8182V83H123.956V56.8182H127.779ZM141.192 83.3963C139.352 83.3963 137.745 82.9744 136.373 82.1307C135.001 81.2869 133.935 80.1065 133.177 78.5895C132.418 77.0724 132.039 75.2997 132.039 73.2713C132.039 71.2344 132.418 69.4531 133.177 67.9276C133.935 66.402 135.001 65.2173 136.373 64.3736C137.745 63.5298 139.352 63.108 141.192 63.108C143.033 63.108 144.64 63.5298 146.012 64.3736C147.384 65.2173 148.45 66.402 149.208 67.9276C149.967 69.4531 150.346 71.2344 150.346 73.2713C150.346 75.2997 149.967 77.0724 149.208 78.5895C148.45 80.1065 147.384 81.2869 146.012 82.1307C144.64 82.9744 143.033 83.3963 141.192 83.3963ZM141.205 80.1875C142.398 80.1875 143.387 79.8722 144.171 79.2415C144.955 78.6108 145.535 77.7713 145.91 76.723C146.293 75.6747 146.485 74.5199 146.485 73.2585C146.485 72.0057 146.293 70.8551 145.91 69.8068C145.535 68.75 144.955 67.902 144.171 67.2628C143.387 66.6236 142.398 66.304 141.205 66.304C140.004 66.304 139.006 66.6236 138.214 67.2628C137.43 67.902 136.846 68.75 136.462 69.8068C136.087 70.8551 135.9 72.0057 135.9 73.2585C135.9 74.5199 136.087 75.6747 136.462 76.723C136.846 77.7713 137.43 78.6108 138.214 79.2415C139.006 79.8722 140.004 80.1875 141.205 80.1875ZM162.846 90.7727C161.286 90.7727 159.944 90.5682 158.819 90.1591C157.702 89.75 156.79 89.2088 156.083 88.5355C155.375 87.8622 154.847 87.125 154.498 86.3239L157.783 84.9688C158.013 85.3438 158.32 85.7401 158.703 86.1577C159.096 86.5838 159.624 86.946 160.289 87.2443C160.962 87.5426 161.827 87.6918 162.884 87.6918C164.333 87.6918 165.53 87.3381 166.476 86.6307C167.422 85.9318 167.895 84.8153 167.895 83.2812V79.4205H167.652C167.422 79.8381 167.09 80.3026 166.655 80.8139C166.229 81.3253 165.641 81.7685 164.891 82.1435C164.141 82.5185 163.165 82.706 161.963 82.706C160.412 82.706 159.015 82.3437 157.77 81.6193C156.534 80.8864 155.554 79.8082 154.83 78.3849C154.114 76.9531 153.756 75.1932 153.756 73.1051C153.756 71.017 154.11 69.2273 154.817 67.7358C155.533 66.2443 156.513 65.1023 157.757 64.3097C159.002 63.5085 160.412 63.108 161.989 63.108C163.208 63.108 164.192 63.3125 164.942 63.7216C165.692 64.1222 166.276 64.5909 166.694 65.1278C167.12 65.6648 167.448 66.1378 167.678 66.5469H167.959V63.3636H171.705V83.4347C171.705 85.1222 171.313 86.5071 170.529 87.5895C169.745 88.6719 168.684 89.473 167.346 89.9929C166.016 90.5128 164.516 90.7727 162.846 90.7727ZM162.807 79.5355C163.907 79.5355 164.836 79.2798 165.594 78.7685C166.361 78.2486 166.941 77.5071 167.333 76.544C167.733 75.5724 167.934 74.4091 167.934 73.054C167.934 71.733 167.738 70.5696 167.346 69.5639C166.953 68.5582 166.378 67.7741 165.62 67.2116C164.861 66.6406 163.924 66.3551 162.807 66.3551C161.657 66.3551 160.698 66.6534 159.931 67.25C159.164 67.8381 158.584 68.6392 158.192 69.6534C157.809 70.6676 157.617 71.8011 157.617 73.054C157.617 74.3409 157.813 75.4702 158.205 76.4418C158.597 77.4134 159.176 78.1719 159.944 78.7173C160.719 79.2628 161.674 79.5355 162.807 79.5355ZM176.831 83V63.3636H180.654V83H176.831ZM178.762 60.3338C178.097 60.3338 177.526 60.1122 177.049 59.669C176.58 59.2173 176.346 58.6804 176.346 58.0582C176.346 57.4276 176.58 56.8906 177.049 56.4474C177.526 55.9957 178.097 55.7699 178.762 55.7699C179.426 55.7699 179.993 55.9957 180.462 56.4474C180.939 56.8906 181.178 57.4276 181.178 58.0582C181.178 58.6804 180.939 59.2173 180.462 59.669C179.993 60.1122 179.426 60.3338 178.762 60.3338ZM185.387 83V80.3793L196.023 66.8665V66.6875H185.732V63.3636H200.792V66.1506L190.565 79.4972V79.6761H201.15V83H185.387ZM213.56 83.3963C211.625 83.3963 209.959 82.983 208.561 82.1562C207.172 81.321 206.098 80.1491 205.34 78.6406C204.59 77.1236 204.215 75.3466 204.215 73.3097C204.215 71.2983 204.59 69.5256 205.34 67.9915C206.098 66.4574 207.155 65.2599 208.51 64.3991C209.874 63.5384 211.468 63.108 213.292 63.108C214.4 63.108 215.473 63.2912 216.513 63.6577C217.553 64.0241 218.486 64.5994 219.313 65.3835C220.14 66.1676 220.792 67.1861 221.269 68.4389C221.746 69.6832 221.985 71.196 221.985 72.9773V74.3324H206.375V71.4688H218.239C218.239 70.4631 218.034 69.5724 217.625 68.7969C217.216 68.0128 216.641 67.3949 215.9 66.9432C215.167 66.4915 214.306 66.2656 213.317 66.2656C212.243 66.2656 211.306 66.5298 210.505 67.0582C209.712 67.5781 209.098 68.2599 208.664 69.1037C208.238 69.9389 208.025 70.8466 208.025 71.8267V74.0639C208.025 75.3764 208.255 76.4929 208.715 77.4134C209.184 78.3338 209.836 79.0369 210.671 79.5227C211.506 80 212.482 80.2386 213.598 80.2386C214.323 80.2386 214.983 80.1364 215.58 79.9318C216.176 79.7187 216.692 79.4034 217.127 78.9858C217.561 78.5682 217.894 78.0526 218.124 77.4389L221.742 78.0909C221.452 79.1562 220.932 80.0895 220.182 80.8906C219.441 81.6832 218.507 82.3011 217.382 82.7443C216.266 83.179 214.992 83.3963 213.56 83.3963Z" fill="#067299"/>
</svg>
