<svg width="233" height="141" viewBox="0 0 233 141" fill="none" xmlns="http://www.w3.org/2000/svg">
<rect width="35" height="102.506" rx="5" transform="matrix(-0.866025 0.5 -0.746241 -0.665676 111.805 123.236)" fill="#067299"/>
<rect width="35" height="109.598" rx="5" transform="matrix(0.866025 0.5 -0.742435 0.669919 81.3696 2.36182)" fill="#279CAC"/>
<rect x="1.40723" width="35" height="139.745" rx="5" fill="#25C8B7"/>
<path d="M75.0284 83.3963C73.7841 83.3963 72.6634 83.1747 71.6662 82.7315C70.6776 82.2798 69.8935 81.6151 69.3139 80.7372C68.7429 79.8594 68.4574 78.777 68.4574 77.4901C68.4574 76.3821 68.6619 75.4659 69.071 74.7415C69.4801 74.017 70.0384 73.4375 70.7457 73.0028C71.4531 72.5682 72.25 72.2401 73.1364 72.0185C74.0313 71.7884 74.956 71.6222 75.9105 71.5199C77.0611 71.4006 77.9943 71.294 78.7102 71.2003C79.4261 71.098 79.946 70.9446 80.2699 70.7401C80.6023 70.527 80.7685 70.1989 80.7685 69.7557V69.679C80.7685 68.7159 80.483 67.9702 79.9119 67.4418C79.3409 66.9134 78.5185 66.6491 77.4446 66.6491C76.3111 66.6491 75.4119 66.8963 74.7472 67.3906C74.0909 67.8849 73.6477 68.4687 73.4176 69.142L69.0966 68.5284C69.4375 67.3352 70 66.3381 70.7841 65.5369C71.5682 64.7273 72.527 64.1222 73.6605 63.7216C74.794 63.3125 76.0469 63.108 77.419 63.108C78.3651 63.108 79.3068 63.2188 80.2443 63.4403C81.1818 63.6619 82.0384 64.0284 82.8139 64.5398C83.5895 65.0426 84.2116 65.7287 84.6804 66.598C85.1577 67.4673 85.3963 68.554 85.3963 69.858V83H80.9474V80.3026H80.794C80.5128 80.848 80.1165 81.3594 79.6051 81.8366C79.1023 82.3054 78.4673 82.6847 77.7003 82.9744C76.9418 83.2557 76.0511 83.3963 75.0284 83.3963ZM76.2301 79.9957C77.1591 79.9957 77.9645 79.8125 78.6463 79.446C79.3281 79.071 79.8523 78.5767 80.2188 77.9631C80.5938 77.3494 80.7812 76.6804 80.7812 75.956V73.642C80.6364 73.7614 80.3892 73.8722 80.0398 73.9744C79.6989 74.0767 79.3153 74.1662 78.8892 74.2429C78.4631 74.3196 78.0412 74.3878 77.6236 74.4474C77.206 74.5071 76.8438 74.5582 76.5369 74.6009C75.8466 74.6946 75.2287 74.848 74.6832 75.0611C74.1378 75.2741 73.7074 75.5724 73.392 75.956C73.0767 76.331 72.919 76.8168 72.919 77.4134C72.919 78.2656 73.2301 78.9091 73.8523 79.3438C74.4744 79.7784 75.267 79.9957 76.2301 79.9957ZM99.8551 63.3636V66.9432H88.5668V63.3636H99.8551ZM91.3537 58.6591H95.9815V77.0938C95.9815 77.7159 96.0753 78.1932 96.2628 78.5256C96.4588 78.8494 96.7145 79.071 97.0298 79.1903C97.3452 79.3097 97.6946 79.3693 98.0781 79.3693C98.3679 79.3693 98.6321 79.348 98.8707 79.3054C99.1179 79.2628 99.3054 79.2244 99.4332 79.1903L100.213 82.8082C99.9659 82.8935 99.6122 82.9872 99.152 83.0895C98.7003 83.1918 98.1463 83.2514 97.4901 83.2685C96.331 83.3026 95.2869 83.1278 94.358 82.7443C93.429 82.3523 92.6918 81.7472 92.1463 80.929C91.6094 80.1108 91.3452 79.0881 91.3537 77.8608V58.6591ZM109.376 83.3963C108.132 83.3963 107.011 83.1747 106.014 82.7315C105.025 82.2798 104.241 81.6151 103.662 80.7372C103.091 79.8594 102.805 78.777 102.805 77.4901C102.805 76.3821 103.01 75.4659 103.419 74.7415C103.828 74.017 104.386 73.4375 105.093 73.0028C105.801 72.5682 106.598 72.2401 107.484 72.0185C108.379 71.7884 109.304 71.6222 110.258 71.5199C111.409 71.4006 112.342 71.294 113.058 71.2003C113.774 71.098 114.294 70.9446 114.618 70.7401C114.95 70.527 115.116 70.1989 115.116 69.7557V69.679C115.116 68.7159 114.831 67.9702 114.26 67.4418C113.689 66.9134 112.866 66.6491 111.792 66.6491C110.659 66.6491 109.76 66.8963 109.095 67.3906C108.439 67.8849 107.995 68.4687 107.765 69.142L103.444 68.5284C103.785 67.3352 104.348 66.3381 105.132 65.5369C105.916 64.7273 106.875 64.1222 108.008 63.7216C109.142 63.3125 110.395 63.108 111.767 63.108C112.713 63.108 113.654 63.2188 114.592 63.4403C115.529 63.6619 116.386 64.0284 117.162 64.5398C117.937 65.0426 118.559 65.7287 119.028 66.598C119.505 67.4673 119.744 68.554 119.744 69.858V83H115.295V80.3026H115.142C114.86 80.848 114.464 81.3594 113.953 81.8366C113.45 82.3054 112.815 82.6847 112.048 82.9744C111.289 83.2557 110.399 83.3963 109.376 83.3963ZM110.578 79.9957C111.507 79.9957 112.312 79.8125 112.994 79.446C113.676 79.071 114.2 78.5767 114.566 77.9631C114.941 77.3494 115.129 76.6804 115.129 75.956V73.642C114.984 73.7614 114.737 73.8722 114.387 73.9744C114.047 74.0767 113.663 74.1662 113.237 74.2429C112.811 74.3196 112.389 74.3878 111.971 74.4474C111.554 74.5071 111.191 74.5582 110.885 74.6009C110.194 74.6946 109.576 74.848 109.031 75.0611C108.485 75.2741 108.055 75.5724 107.74 75.956C107.424 76.331 107.267 76.8168 107.267 77.4134C107.267 78.2656 107.578 78.9091 108.2 79.3438C108.822 79.7784 109.615 79.9957 110.578 79.9957ZM129.025 56.8182V83H124.397V56.8182H129.025ZM142.349 83.3835C140.432 83.3835 138.77 82.9616 137.364 82.1179C135.957 81.2741 134.866 80.0937 134.091 78.5767C133.324 77.0597 132.94 75.2869 132.94 73.2585C132.94 71.2301 133.324 69.4531 134.091 67.9276C134.866 66.402 135.957 65.2173 137.364 64.3736C138.77 63.5298 140.432 63.108 142.349 63.108C144.267 63.108 145.929 63.5298 147.335 64.3736C148.741 65.2173 149.828 66.402 150.595 67.9276C151.371 69.4531 151.759 71.2301 151.759 73.2585C151.759 75.2869 151.371 77.0597 150.595 78.5767C149.828 80.0937 148.741 81.2741 147.335 82.1179C145.929 82.9616 144.267 83.3835 142.349 83.3835ZM142.375 79.6761C143.415 79.6761 144.284 79.3906 144.983 78.8196C145.682 78.2401 146.202 77.4645 146.543 76.4929C146.892 75.5213 147.067 74.4389 147.067 73.2457C147.067 72.044 146.892 70.9574 146.543 69.9858C146.202 69.0057 145.682 68.2259 144.983 67.6463C144.284 67.0668 143.415 66.777 142.375 66.777C141.31 66.777 140.423 67.0668 139.716 67.6463C139.017 68.2259 138.493 69.0057 138.143 69.9858C137.803 70.9574 137.632 72.044 137.632 73.2457C137.632 74.4389 137.803 75.5213 138.143 76.4929C138.493 77.4645 139.017 78.2401 139.716 78.8196C140.423 79.3906 141.31 79.6761 142.375 79.6761ZM164.226 90.7727C162.564 90.7727 161.137 90.5469 159.944 90.0952C158.75 89.652 157.792 89.0554 157.067 88.3054C156.343 87.5554 155.84 86.7244 155.559 85.8125L159.726 84.8026C159.914 85.1861 160.186 85.5653 160.544 85.9403C160.902 86.3239 161.384 86.6392 161.989 86.8864C162.603 87.142 163.374 87.2699 164.303 87.2699C165.615 87.2699 166.702 86.9503 167.563 86.3111C168.424 85.6804 168.854 84.6406 168.854 83.1918V79.4716H168.624C168.385 79.9489 168.036 80.4389 167.576 80.9418C167.124 81.4446 166.523 81.8665 165.773 82.2074C165.032 82.5483 164.098 82.7188 162.973 82.7188C161.465 82.7188 160.097 82.3651 158.87 81.6577C157.651 80.9418 156.679 79.8764 155.955 78.4616C155.239 77.0384 154.881 75.2571 154.881 73.1179C154.881 70.9616 155.239 69.142 155.955 67.6591C156.679 66.1676 157.655 65.0384 158.882 64.2713C160.11 63.4957 161.478 63.108 162.986 63.108C164.137 63.108 165.083 63.304 165.824 63.696C166.574 64.0795 167.171 64.544 167.614 65.0895C168.057 65.6264 168.394 66.1335 168.624 66.6108H168.88V63.3636H173.444V83.3196C173.444 84.9986 173.043 86.3878 172.242 87.4872C171.441 88.5866 170.346 89.4091 168.956 89.9545C167.567 90.5 165.99 90.7727 164.226 90.7727ZM164.265 79.0881C165.245 79.0881 166.08 78.8494 166.77 78.3722C167.461 77.8949 167.985 77.2088 168.343 76.3139C168.701 75.419 168.88 74.3452 168.88 73.0923C168.88 71.8565 168.701 70.7741 168.343 69.8452C167.993 68.9162 167.473 68.196 166.783 67.6847C166.101 67.1648 165.262 66.9048 164.265 66.9048C163.233 66.9048 162.373 67.1733 161.682 67.7102C160.992 68.2472 160.472 68.9844 160.123 69.9219C159.773 70.8509 159.598 71.9077 159.598 73.0923C159.598 74.294 159.773 75.3466 160.123 76.25C160.48 77.1449 161.005 77.8437 161.695 78.3466C162.394 78.8409 163.25 79.0881 164.265 79.0881ZM178.186 83V63.3636H182.814V83H178.186ZM180.513 60.5767C179.78 60.5767 179.15 60.3338 178.621 59.848C178.093 59.3537 177.828 58.7614 177.828 58.071C177.828 57.3722 178.093 56.7798 178.621 56.294C179.15 55.7997 179.78 55.5526 180.513 55.5526C181.255 55.5526 181.885 55.7997 182.405 56.294C182.934 56.7798 183.198 57.3722 183.198 58.071C183.198 58.7614 182.934 59.3537 182.405 59.848C181.885 60.3338 181.255 60.5767 180.513 60.5767ZM187.317 83V80.0597L197.442 67.3651V67.1989H187.65V63.3636H203.106V66.5213L193.467 78.9986V79.1648H203.438V83H187.317ZM215.919 83.3835C213.95 83.3835 212.25 82.9744 210.818 82.1562C209.395 81.3295 208.299 80.1619 207.532 78.6534C206.765 77.1364 206.382 75.3509 206.382 73.2969C206.382 71.277 206.765 69.5043 207.532 67.9787C208.308 66.4446 209.39 65.2514 210.779 64.3991C212.169 63.5384 213.801 63.108 215.676 63.108C216.886 63.108 218.028 63.304 219.102 63.696C220.184 64.0795 221.139 64.6761 221.966 65.4858C222.801 66.2955 223.457 67.3267 223.934 68.5795C224.412 69.8239 224.65 71.3068 224.65 73.0284V74.4474H208.555V71.3281H220.214C220.206 70.4418 220.014 69.6534 219.639 68.9631C219.264 68.2642 218.74 67.7145 218.066 67.3139C217.402 66.9134 216.626 66.7131 215.74 66.7131C214.794 66.7131 213.963 66.9432 213.247 67.4034C212.531 67.8551 211.973 68.4517 211.572 69.1932C211.18 69.9261 210.98 70.7315 210.971 71.6094V74.3324C210.971 75.4744 211.18 76.4545 211.598 77.2727C212.015 78.0824 212.599 78.7045 213.349 79.1392C214.099 79.5653 214.977 79.7784 215.983 79.7784C216.656 79.7784 217.265 79.6847 217.811 79.4972C218.356 79.3011 218.829 79.0156 219.23 78.6406C219.63 78.2656 219.933 77.8011 220.137 77.2472L224.458 77.733C224.186 78.875 223.666 79.8722 222.899 80.7244C222.14 81.5682 221.169 82.2244 219.984 82.6932C218.799 83.1534 217.444 83.3835 215.919 83.3835Z" fill="#067299"/>
</svg>
