<svg width="252" height="141" viewBox="0 0 252 141" fill="none" xmlns="http://www.w3.org/2000/svg">
<rect width="35" height="102.506" rx="5" transform="matrix(-0.866025 0.5 -0.746241 -0.665676 111.805 123.236)" fill="#03476A"/>
<rect width="35" height="109.598" rx="5" transform="matrix(0.866025 0.5 -0.742435 0.669919 81.3696 2.36182)" fill="#0A5B86"/>
<rect x="1.40723" width="35" height="139.745" rx="5" fill="#046E95"/>
<path d="M77.6364 81.4119C76.2443 81.4119 75.0038 81.1705 73.9148 80.6875C72.8258 80.1951 71.964 79.4706 71.3295 78.5142C70.7045 77.5483 70.392 76.3456 70.392 74.9062C70.392 73.6941 70.6146 72.6761 71.0597 71.8523C71.5047 71.0284 72.1108 70.3655 72.8778 69.8636C73.6449 69.3617 74.5161 68.983 75.4915 68.7273C76.4763 68.4716 77.5085 68.2917 78.5881 68.1875C79.857 68.0549 80.8797 67.9318 81.6562 67.8182C82.4328 67.6951 82.9962 67.5152 83.3466 67.2784C83.697 67.0417 83.8722 66.6913 83.8722 66.2273V66.142C83.8722 65.2424 83.5881 64.5464 83.0199 64.054C82.4612 63.5616 81.6657 63.3153 80.6335 63.3153C79.5445 63.3153 78.678 63.5568 78.0341 64.0398C77.3902 64.5133 76.964 65.1098 76.7557 65.8295L71.1591 65.375C71.4432 64.0492 72.0019 62.9034 72.8352 61.9375C73.6686 60.9621 74.7434 60.214 76.0597 59.6932C77.3854 59.1629 78.9195 58.8977 80.6619 58.8977C81.8741 58.8977 83.0341 59.0398 84.142 59.3239C85.2595 59.608 86.2491 60.0483 87.1108 60.6449C87.982 61.2415 88.6686 62.0085 89.1705 62.946C89.6723 63.8741 89.9233 64.9867 89.9233 66.2841V81H84.1847V77.9744H84.0142C83.6638 78.6562 83.1951 79.2576 82.608 79.7784C82.0208 80.2898 81.3153 80.6922 80.4915 80.9858C79.6676 81.2699 78.7159 81.4119 77.6364 81.4119ZM79.3693 77.2358C80.2595 77.2358 81.0455 77.0606 81.7273 76.7102C82.4091 76.3504 82.9441 75.8674 83.3324 75.2614C83.7206 74.6553 83.9148 73.9687 83.9148 73.2017V70.8864C83.7254 71.0095 83.465 71.1231 83.1335 71.2273C82.8116 71.322 82.447 71.4119 82.0398 71.4972C81.6326 71.5729 81.2254 71.6439 80.8182 71.7102C80.411 71.767 80.0417 71.8191 79.7102 71.8665C79 71.9706 78.3797 72.1364 77.8494 72.3636C77.3191 72.5909 76.9072 72.8987 76.6136 73.2869C76.3201 73.6657 76.1733 74.1392 76.1733 74.7074C76.1733 75.5312 76.4716 76.161 77.0682 76.5966C77.6742 77.0227 78.4413 77.2358 79.3693 77.2358ZM106.223 59.1818V63.7273H93.0838V59.1818H106.223ZM96.0668 53.9545H102.118V74.2955C102.118 74.8542 102.203 75.2898 102.374 75.6023C102.544 75.9053 102.781 76.1184 103.084 76.2415C103.396 76.3646 103.756 76.4261 104.163 76.4261C104.447 76.4261 104.732 76.4025 105.016 76.3551C105.3 76.2983 105.518 76.2557 105.669 76.2273L106.621 80.7301C106.318 80.8248 105.892 80.9337 105.342 81.0568C104.793 81.1894 104.125 81.2699 103.339 81.2983C101.881 81.3551 100.603 81.161 99.5043 80.7159C98.4152 80.2708 97.5677 79.5795 96.9616 78.642C96.3556 77.7045 96.0573 76.5208 96.0668 75.0909V53.9545ZM116.386 81.4119C114.994 81.4119 113.754 81.1705 112.665 80.6875C111.576 80.1951 110.714 79.4706 110.08 78.5142C109.455 77.5483 109.142 76.3456 109.142 74.9062C109.142 73.6941 109.365 72.6761 109.81 71.8523C110.255 71.0284 110.861 70.3655 111.628 69.8636C112.395 69.3617 113.266 68.983 114.241 68.7273C115.226 68.4716 116.259 68.2917 117.338 68.1875C118.607 68.0549 119.63 67.9318 120.406 67.8182C121.183 67.6951 121.746 67.5152 122.097 67.2784C122.447 67.0417 122.622 66.6913 122.622 66.2273V66.142C122.622 65.2424 122.338 64.5464 121.77 64.054C121.211 63.5616 120.416 63.3153 119.384 63.3153C118.295 63.3153 117.428 63.5568 116.784 64.0398C116.14 64.5133 115.714 65.1098 115.506 65.8295L109.909 65.375C110.193 64.0492 110.752 62.9034 111.585 61.9375C112.419 60.9621 113.493 60.214 114.81 59.6932C116.135 59.1629 117.67 58.8977 119.412 58.8977C120.624 58.8977 121.784 59.0398 122.892 59.3239C124.009 59.608 124.999 60.0483 125.861 60.6449C126.732 61.2415 127.419 62.0085 127.92 62.946C128.422 63.8741 128.673 64.9867 128.673 66.2841V81H122.935V77.9744H122.764C122.414 78.6562 121.945 79.2576 121.358 79.7784C120.771 80.2898 120.065 80.6922 119.241 80.9858C118.418 81.2699 117.466 81.4119 116.386 81.4119ZM118.119 77.2358C119.009 77.2358 119.795 77.0606 120.477 76.7102C121.159 76.3504 121.694 75.8674 122.082 75.2614C122.471 74.6553 122.665 73.9687 122.665 73.2017V70.8864C122.475 71.0095 122.215 71.1231 121.884 71.2273C121.562 71.322 121.197 71.4119 120.79 71.4972C120.383 71.5729 119.975 71.6439 119.568 71.7102C119.161 71.767 118.792 71.8191 118.46 71.8665C117.75 71.9706 117.13 72.1364 116.599 72.3636C116.069 72.5909 115.657 72.8987 115.364 73.2869C115.07 73.6657 114.923 74.1392 114.923 74.7074C114.923 75.5312 115.222 76.161 115.818 76.5966C116.424 77.0227 117.191 77.2358 118.119 77.2358ZM139.419 51.9091V81H133.368V51.9091H139.419ZM154.124 81.4261C151.918 81.4261 150.01 80.9574 148.4 80.0199C146.799 79.0729 145.564 77.7566 144.692 76.071C143.821 74.3759 143.386 72.411 143.386 70.1761C143.386 67.9223 143.821 65.9527 144.692 64.267C145.564 62.572 146.799 61.2557 148.4 60.3182C150.01 59.3712 151.918 58.8977 154.124 58.8977C156.331 58.8977 158.234 59.3712 159.835 60.3182C161.444 61.2557 162.685 62.572 163.556 64.267C164.427 65.9527 164.863 67.9223 164.863 70.1761C164.863 72.411 164.427 74.3759 163.556 76.071C162.685 77.7566 161.444 79.0729 159.835 80.0199C158.234 80.9574 156.331 81.4261 154.124 81.4261ZM154.153 76.7386C155.156 76.7386 155.995 76.4545 156.667 75.8864C157.339 75.3087 157.846 74.5227 158.187 73.5284C158.537 72.5341 158.712 71.4025 158.712 70.1335C158.712 68.8646 158.537 67.733 158.187 66.7386C157.846 65.7443 157.339 64.9583 156.667 64.3807C155.995 63.803 155.156 63.5142 154.153 63.5142C153.139 63.5142 152.287 63.803 151.596 64.3807C150.914 64.9583 150.398 65.7443 150.048 66.7386C149.707 67.733 149.536 68.8646 149.536 70.1335C149.536 71.4025 149.707 72.5341 150.048 73.5284C150.398 74.5227 150.914 75.3087 151.596 75.8864C152.287 76.4545 153.139 76.7386 154.153 76.7386ZM178.627 89.6364C176.667 89.6364 174.986 89.3665 173.585 88.8267C172.192 88.2964 171.085 87.572 170.261 86.6534C169.437 85.7348 168.902 84.7027 168.656 83.5568L174.252 82.804C174.423 83.2396 174.692 83.6468 175.062 84.0256C175.431 84.4044 175.919 84.7074 176.525 84.9347C177.14 85.1714 177.888 85.2898 178.769 85.2898C180.085 85.2898 181.17 84.9678 182.022 84.3239C182.884 83.6894 183.315 82.6241 183.315 81.1278V77.1364H183.059C182.794 77.7424 182.396 78.3153 181.866 78.8551C181.335 79.3949 180.654 79.8352 179.82 80.1761C178.987 80.517 177.993 80.6875 176.837 80.6875C175.199 80.6875 173.708 80.3087 172.363 79.5511C171.028 78.7841 169.962 77.6146 169.167 76.0426C168.381 74.4612 167.988 72.4631 167.988 70.0483C167.988 67.5767 168.39 65.5123 169.195 63.8551C170 62.1979 171.07 60.9574 172.406 60.1335C173.75 59.3097 175.223 58.8977 176.823 58.8977C178.045 58.8977 179.067 59.1061 179.891 59.5227C180.715 59.9299 181.378 60.4413 181.88 61.0568C182.391 61.6629 182.784 62.2595 183.059 62.8466H183.286V59.1818H189.295V81.2131C189.295 83.0691 188.84 84.6222 187.931 85.8722C187.022 87.1222 185.763 88.0597 184.153 88.6847C182.552 89.3191 180.71 89.6364 178.627 89.6364ZM178.755 76.142C179.73 76.142 180.554 75.9006 181.227 75.4176C181.908 74.9252 182.429 74.2244 182.789 73.3153C183.158 72.3968 183.343 71.2983 183.343 70.0199C183.343 68.7415 183.163 67.6335 182.803 66.696C182.443 65.7491 181.923 65.0152 181.241 64.4943C180.559 63.9735 179.73 63.7131 178.755 63.7131C177.761 63.7131 176.923 63.983 176.241 64.5227C175.559 65.053 175.043 65.7917 174.692 66.7386C174.342 67.6856 174.167 68.7794 174.167 70.0199C174.167 71.2794 174.342 72.3684 174.692 73.2869C175.052 74.196 175.568 74.9015 176.241 75.4034C176.923 75.8958 177.761 76.142 178.755 76.142ZM194.11 81V59.1818H200.161V81H194.11ZM197.15 56.3693C196.25 56.3693 195.478 56.071 194.835 55.4744C194.2 54.8684 193.883 54.1439 193.883 53.3011C193.883 52.4678 194.2 51.7528 194.835 51.1562C195.478 50.5502 196.25 50.2472 197.15 50.2472C198.049 50.2472 198.817 50.5502 199.451 51.1562C200.095 51.7528 200.417 52.4678 200.417 53.3011C200.417 54.1439 200.095 54.8684 199.451 55.4744C198.817 56.071 198.049 56.3693 197.15 56.3693ZM204.895 81V77.392L215.577 64.1676V64.0114H205.264V59.1818H222.864V63.1165L212.835 76.0142V76.1705H223.233V81H204.895ZM237.178 81.4261C234.934 81.4261 233.002 80.9716 231.383 80.0625C229.773 79.1439 228.532 77.8466 227.661 76.1705C226.79 74.4848 226.354 72.4915 226.354 70.1903C226.354 67.946 226.79 65.9763 227.661 64.2812C228.532 62.5862 229.759 61.2652 231.34 60.3182C232.931 59.3712 234.797 58.8977 236.937 58.8977C238.376 58.8977 239.716 59.1297 240.957 59.5938C242.207 60.0483 243.296 60.7348 244.224 61.6534C245.161 62.572 245.89 63.7273 246.411 65.1193C246.932 66.5019 247.192 68.1212 247.192 69.9773V71.6392H228.769V67.8892H241.496C241.496 67.018 241.307 66.2462 240.928 65.5739C240.549 64.9015 240.024 64.3759 239.352 63.9972C238.689 63.6089 237.917 63.4148 237.036 63.4148C236.118 63.4148 235.303 63.6278 234.593 64.054C233.892 64.4706 233.343 65.0341 232.945 65.7443C232.548 66.4451 232.344 67.2263 232.335 68.0881V71.6534C232.335 72.733 232.533 73.6657 232.931 74.4517C233.338 75.2377 233.911 75.8438 234.65 76.2699C235.388 76.696 236.264 76.9091 237.278 76.9091C237.95 76.9091 238.566 76.8144 239.124 76.625C239.683 76.4356 240.161 76.1515 240.559 75.7727C240.957 75.3939 241.26 74.9299 241.468 74.3807L247.065 74.75C246.781 76.0947 246.198 77.2689 245.317 78.2727C244.446 79.267 243.319 80.0436 241.937 80.6023C240.564 81.1515 238.978 81.4261 237.178 81.4261Z" fill="#024E76"/>
</svg>
